<svg xmlns="http://www.w3.org/2000/svg" width="142" height="142" viewBox="0 0 142 142">
  <defs>
    <style>
      .cls-1 {
        fill: #fff;
      }

      .cls-2 {
        fill: #95bf46;
      }

      .cls-3 {
        fill: #5e8e3e;
      }
    </style>
  </defs>
  <g id="Group_7" data-name="Group 7" transform="translate(-429 -556)">
    <rect id="Rectangle_3" data-name="Rectangle 3" class="cls-1" width="142" height="142" rx="10" transform="translate(429 556)"/>
    <g id="Group_6" data-name="Group 6">
      <path id="Path_48" data-name="Path 48" class="cls-2" d="M228.053,269.689a.866.866,0,0,0-.783-.727c-.326-.027-7.215-.538-7.215-.538s-4.785-4.749-5.31-5.274a2.177,2.177,0,0,0-1.95-.249c-.059.017-1.046.322-2.678.827-1.6-4.6-4.419-8.824-9.382-8.824-.137,0-.278.006-.419.014a6.031,6.031,0,0,0-4.67-2.677c-11.56,0-17.083,14.448-18.815,21.79-4.492,1.391-7.683,2.38-8.091,2.508-2.507.787-2.586.866-2.916,3.228-.247,1.788-6.808,52.511-6.808,52.511l51.122,9.576,27.7-5.991s-9.724-65.724-9.785-66.174ZM207.291,264.6l-4.325,1.338c0-.3,0-.605,0-.933a21.192,21.192,0,0,0-1.034-6.982C204.492,258.346,206.2,261.254,207.291,264.6Zm-8.528-6.011a21.435,21.435,0,0,1,1.173,7.786c0,.176,0,.338,0,.5L191,269.644C192.72,263.006,195.944,259.8,198.763,258.591Zm-3.434-3.25a2.609,2.609,0,0,1,1.482.5c-3.705,1.743-7.676,6.133-9.353,14.9l-7.062,2.186c1.965-6.686,6.629-17.585,14.932-17.585Z" transform="translate(301 329)"/>
      <path id="Path_49" data-name="Path 49" class="cls-3" d="M227.269,268.961c-.325-.027-7.215-.537-7.215-.537s-4.785-4.75-5.31-5.275a1.3,1.3,0,0,0-.738-.339l-3.866,79.043,27.7-5.99s-9.724-65.724-9.785-66.175A.867.867,0,0,0,227.269,268.961Z" transform="translate(301 329)"/>
      <path id="Path_50" data-name="Path 50" class="cls-1" d="M200.734,284.262l-3.415,10.157a15.724,15.724,0,0,0-6.661-1.6c-5.377,0-5.648,3.374-5.648,4.224,0,4.639,12.1,6.416,12.1,17.282,0,8.549-5.424,14.054-12.737,14.054a17.722,17.722,0,0,1-13.263-5.46l2.35-7.762s4.613,3.96,8.505,3.96a3.43,3.43,0,0,0,3.578-3.465c0-6.051-9.923-6.321-9.923-16.264,0-8.369,6.008-16.468,18.137-16.468C198.426,282.924,200.734,284.262,200.734,284.262Z" transform="translate(301 329)"/>
    </g>
  </g>
</svg>
